<?xml version="1.0" encoding="UTF-8" standalone="no"?><!DOCTYPE svg PUBLIC "-//W3C//DTD SVG 1.1//EN" "http://www.w3.org/Graphics/SVG/1.1/DTD/svg11.dtd"><svg width="100%" height="100%" viewBox="0 0 444 201" version="1.1" xmlns="http://www.w3.org/2000/svg" xmlns:xlink="http://www.w3.org/1999/xlink" xml:space="preserve" xmlns:serif="http://www.serif.com/" style="fill-rule:evenodd;clip-rule:evenodd;stroke-linejoin:round;stroke-miterlimit:2;"><path d="M256.3,82.76C258.64,78.52 259.81,73.72 259.81,68.36C259.81,63 258.64,58.2 256.3,53.96C253.96,49.72 250.73,46.42 246.62,44.05C242.51,41.68 237.91,40.5 232.81,40.5C227.71,40.5 223.19,41.68 219.07,44.05C214.96,46.42 211.72,49.72 209.35,53.96C206.99,58.2 205.8,63 205.8,68.36C205.8,73.72 206.98,78.52 209.35,82.76C211.72,87 214.95,90.3 219.07,92.67C223.18,95.04 227.76,96.22 232.81,96.22C237.86,96.22 242.51,95.04 246.62,92.67C250.73,90.3 253.96,87 256.3,82.76ZM243.74,88.65C240.51,90.52 236.87,91.46 232.81,91.46C228.75,91.46 225.11,90.52 221.88,88.65C218.66,86.78 216.11,84.09 214.23,80.57C212.36,77.06 211.42,72.99 211.42,68.36C211.42,63.73 212.36,59.67 214.23,56.19C216.1,52.7 218.65,50.03 221.88,48.15C225.11,46.28 228.75,45.34 232.81,45.34C236.87,45.34 240.51,46.28 243.74,48.15C246.97,50.02 249.51,52.7 251.39,56.19C253.26,59.68 254.2,63.73 254.2,68.36C254.2,72.99 253.26,77.06 251.39,80.57C249.52,84.08 246.97,86.77 243.74,88.65Z" style="fill:white;fill-rule:nonzero;"/><path d="M290.28,88.77C288.12,90.67 285.2,91.62 281.5,91.62C277.49,91.62 274.45,90.62 272.37,88.62C270.29,86.62 269.12,84.29 268.86,81.64L263.09,81.64C263.19,84.4 264.03,86.89 265.59,89.13C267.15,91.37 269.3,93.11 272.03,94.36C274.76,95.61 277.92,96.23 281.51,96.23C285.1,96.23 288.38,95.53 291.03,94.12C293.68,92.72 295.69,90.87 297.04,88.58C298.39,86.29 299.07,83.87 299.07,81.32C299.07,77.99 298.32,75.34 296.81,73.36C295.3,71.38 293.45,69.91 291.27,68.95C289.09,67.99 286.22,67.01 282.69,66.02C279.62,65.19 277.19,64.41 275.4,63.68C273.61,62.95 272.11,61.88 270.91,60.48C269.71,59.08 269.12,57.23 269.12,54.94C269.12,51.92 270.21,49.54 272.4,47.8C274.59,46.06 277.32,45.19 280.59,45.19C284.13,45.19 286.94,46.06 289.02,47.8C291.1,49.54 292.32,51.53 292.69,53.77L298.62,53.77C298.15,49.87 296.37,46.68 293.27,44.21C290.17,41.74 286.11,40.5 281.06,40.5C277.62,40.5 274.58,41.12 271.93,42.37C269.28,43.62 267.22,45.35 265.77,47.56C264.31,49.77 263.58,52.28 263.58,55.09C263.58,58.47 264.33,61.15 265.84,63.13C267.35,65.11 269.17,66.56 271.31,67.5C273.45,68.44 276.33,69.4 279.97,70.39C283.09,71.22 285.54,71.99 287.3,72.69C289.07,73.39 290.55,74.46 291.75,75.89C292.95,77.32 293.54,79.21 293.54,81.55C293.54,84.46 292.46,86.87 290.3,88.77L290.28,88.77Z" style="fill:white;fill-rule:nonzero;"/><path d="M310.22,72.43L321.22,72.43C327.36,72.43 331.96,71 335.03,68.14C338.1,65.28 339.64,61.51 339.64,56.83C339.64,52.15 338.09,48.3 334.99,45.44C331.89,42.58 327.3,41.15 321.22,41.15L304.75,41.15L304.75,95.7L310.22,95.7L310.22,72.43ZM310.22,45.74L321.22,45.74C325.7,45.74 328.95,46.68 330.97,48.55C333,50.42 334.01,53.18 334.01,56.82C334.01,64.1 329.75,67.74 321.21,67.74L310.21,67.74L310.21,45.73L310.22,45.74Z" style="fill:white;fill-rule:nonzero;"/><path d="M391.93,53.97C389.59,49.73 386.36,46.43 382.25,44.06C378.14,41.69 373.54,40.51 368.44,40.51C363.34,40.51 358.82,41.69 354.7,44.06C350.59,46.43 347.35,49.73 344.98,53.97C342.62,58.21 341.43,63.01 341.43,68.37C341.43,73.73 342.61,78.53 344.98,82.77C347.35,87.01 350.58,90.31 354.7,92.68C358.81,95.05 363.39,96.23 368.44,96.23C373.49,96.23 378.14,95.05 382.25,92.68C386.36,90.31 389.59,87.01 391.93,82.77C394.27,78.53 395.44,73.73 395.44,68.37C395.44,63.01 394.27,58.21 391.93,53.97ZM387.01,80.58C385.14,84.09 382.59,86.78 379.36,88.66C376.13,90.53 372.49,91.47 368.43,91.47C364.37,91.47 360.73,90.53 357.5,88.66C354.28,86.79 351.73,84.1 349.85,80.58C347.98,77.07 347.04,73 347.04,68.37C347.04,63.74 347.98,59.68 349.85,56.2C351.72,52.71 354.27,50.04 357.5,48.16C360.73,46.29 364.37,45.35 368.43,45.35C372.49,45.35 376.13,46.29 379.36,48.16C382.59,50.03 385.13,52.71 387.01,56.2C388.88,59.69 389.82,63.74 389.82,68.37C389.82,73 388.88,77.07 387.01,80.58Z" style="fill:white;fill-rule:nonzero;"/><path d="M228.28,114.72C225.05,114.72 222.17,115.41 219.62,116.79C217.07,118.17 215.12,120.16 213.77,122.76L213.77,115.5L208.3,115.5L208.3,158.11L213.77,158.11L213.77,134.85C213.77,129.8 214.99,125.98 217.44,123.38C219.88,120.78 223.16,119.48 227.27,119.48C231.38,119.48 234.43,120.7 236.75,123.15C239.07,125.6 240.23,129.13 240.23,133.76L240.23,158.11L245.61,158.11L245.61,133.14C245.61,127.16 244,122.59 240.77,119.44C237.54,116.29 233.38,114.72 228.28,114.72Z" style="fill:white;fill-rule:nonzero;"/><path d="M282.56,117.57C279.31,115.78 275.68,114.88 271.68,114.88C267.68,114.88 264.05,115.78 260.83,117.57C257.6,119.36 255.06,121.91 253.18,125.22C251.3,128.53 250.37,132.39 250.37,136.81C250.37,141.23 251.29,145.1 253.14,148.4C254.98,151.71 257.51,154.25 260.71,156.05C263.91,157.85 267.51,158.74 271.52,158.74C275.53,158.74 279.17,157.84 282.45,156.05C285.72,154.26 288.3,151.69 290.18,148.36C292.05,145.03 292.99,141.18 292.99,136.81C292.99,132.44 292.06,128.52 290.22,125.22C288.37,121.92 285.82,119.37 282.57,117.57L282.56,117.57ZM285.14,146.29C283.66,148.87 281.72,150.79 279.33,152.07C276.93,153.35 274.34,153.98 271.53,153.98C268.72,153.98 266.13,153.34 263.77,152.07C261.4,150.8 259.5,148.87 258.07,146.29C256.64,143.72 255.92,140.55 255.92,136.81C255.92,133.07 256.63,129.9 258.07,127.33C259.5,124.75 261.41,122.83 263.81,121.56C266.2,120.29 268.81,119.65 271.61,119.65C274.41,119.65 277.02,120.29 279.41,121.56C281.8,122.84 283.73,124.76 285.18,127.33C286.63,129.91 287.36,133.07 287.36,136.81C287.36,140.55 286.62,143.72 285.14,146.29Z" style="fill:white;fill-rule:nonzero;"/><path d="M338.39,152.65L326.61,115.5L321.15,115.5L309.21,152.57L298.6,115.5L293.06,115.5L306.4,158.11L311.94,158.11L323.72,122.37L335.51,158.11L340.97,158.11L354.32,115.5L348.93,115.5L338.39,152.65Z" style="fill:white;fill-rule:nonzero;"/><path d="M108.16,70.18C108.16,69.29 108.11,68.41 108.03,67.54C108.03,67.48 108.01,67.42 108.01,67.37C107.97,67.03 107.93,66.7 107.88,66.37C105.98,53.93 95.28,44.4 82.36,44.4C68.1,44.4 56.54,56.01 56.54,70.32C56.54,71.03 56.58,71.73 56.63,72.43C56.66,72.81 56.7,73.18 56.75,73.55C56.75,73.62 56.77,73.69 56.78,73.76C56.81,73.99 56.85,74.22 56.88,74.44C58.91,86.67 69.53,95.99 82.34,95.99C96.6,95.99 108.16,84.43 108.16,70.17L108.16,70.18Z" style="fill:rgb(0,168,156);fill-rule:nonzero;"/><path d="M117.2,92.4C117.2,92.4 117.22,92.42 117.23,92.44C117.22,92.43 117.21,92.41 117.2,92.4Z" style="fill-rule:nonzero;"/><g transform="matrix(0.973259,-0.22971,0.22971,0.973259,-26.17,36.4)"><circle cx="143.22" cy="130.6" r="25.82" style="fill:rgb(241,160,31);"/></g><path d="M126.73,95.96L141.64,95.96C142.1,95.98 142.55,96 143.02,96C143.75,96 144.48,95.96 145.19,95.9C157.74,94.85 167.73,84.84 168.74,72.28C168.8,71.59 168.83,70.89 168.83,70.18C168.83,56.83 158.7,45.86 145.72,44.51C144.83,44.42 143.93,44.37 143.02,44.37C128.76,44.37 117.2,55.93 117.2,70.19L117.2,72.29L117.25,90.29L117.25,95.91C117.25,95.91 117.27,95.94 117.29,95.95L126.73,95.97L126.73,95.96Z" style="fill:rgb(190,76,39);fill-rule:nonzero;"/><path d="M126.73,95.96L141.64,95.96C142.1,95.98 142.55,96 143.02,96C143.75,96 144.48,95.96 145.19,95.9C157.74,94.85 167.73,84.84 168.74,72.28C168.8,71.59 168.83,70.89 168.83,70.18C168.83,56.83 158.7,45.86 145.72,44.51C144.83,44.42 143.93,44.37 143.02,44.37C128.76,44.37 117.2,55.93 117.2,70.19L117.2,72.29L117.25,90.29L117.25,95.91C117.25,95.91 117.27,95.94 117.29,95.95L126.73,95.97L126.73,95.96Z" style="fill:none;fill-rule:nonzero;"/><path d="M117.2,92.4C117.2,92.4 117.22,92.42 117.23,92.44C117.22,92.43 117.21,92.41 117.2,92.4Z" style="fill:none;fill-rule:nonzero;"/><path d="M108.16,70.18C108.16,69.29 108.11,68.41 108.03,67.54C108.03,67.48 108.01,67.42 108.01,67.37C107.97,67.03 107.93,66.7 107.88,66.37C105.98,53.93 95.28,44.4 82.36,44.4C68.1,44.4 56.54,56.01 56.54,70.32C56.54,71.03 56.58,71.73 56.63,72.43C56.66,72.81 56.7,73.18 56.75,73.55C56.75,73.62 56.77,73.69 56.78,73.76C56.81,73.99 56.85,74.22 56.88,74.44C58.91,86.67 69.53,95.99 82.34,95.99C96.6,95.99 108.16,84.43 108.16,70.17L108.16,70.18Z" style="fill:none;fill-rule:nonzero;"/><g transform="matrix(0.973259,-0.22971,0.22971,0.973259,-26.17,36.4)"><circle cx="143.22" cy="130.6" r="25.82" style="fill:none;"/></g><g transform="matrix(1,0,0,1,0,0.11)"><path d="M56.53,130.609C56.605,143.941 66.698,154.885 79.64,156.24C93.7,157.46 107.89,146.91 108.09,130.46C108.09,130.34 108.1,130.23 108.1,130.11L108.1,128.91C107.33,115.77 96.82,105.26 83.71,104.57C83.158,104.531 82.878,104.492 82.47,104.49L82.34,104.49C76.49,104.49 70.99,103.01 66.18,100.4C66.16,100.41 66.14,100.42 66.13,100.42C57.18,95.55 50.67,86.75 48.83,76.33C48.74,75.83 48.66,75.33 48.59,74.82L48.56,74.55C48.37,73.12 48.27,71.67 48.27,70.19C48.27,51.37 63.52,36.12 82.34,36.12L82.39,36.12C83.1,36.12 83.8,36.15 84.5,36.19C84.72,36.2 84.94,36.22 85.16,36.24C85.71,36.28 86.25,36.34 86.79,36.41C86.97,36.44 87.15,36.45 87.33,36.48C88.03,36.58 88.71,36.71 89.39,36.85C89.54,36.88 89.68,36.92 89.83,36.95C90.4,37.07 90.96,37.21 91.52,37.37C91.69,37.42 91.85,37.46 92.01,37.51C93.41,37.93 94.77,38.43 96.09,39.01C96.14,39.03 96.2,39.06 96.25,39.08C103.35,42.26 109.16,47.79 112.69,54.69C112.75,54.57 112.8,54.45 112.86,54.34C118.56,43.5 129.92,36.11 143.02,36.11C161.84,36.11 177.09,51.36 177.09,70.18C177.09,70.89 177.06,71.59 177.02,72.28C176.28,84.33 169.29,94.7 159.24,100.15C159.122,100.219 158.993,100.278 158.875,100.338C169.807,106.01 177.28,117.426 177.28,130.59C177.28,149.41 162.03,164.66 143.21,164.66C129.92,164.66 118.42,157.05 112.8,145.95L112.7,145.95C112.63,146.09 112.57,146.23 112.5,146.36C106.8,157.25 95.44,164.67 82.34,164.67C63.569,164.67 48.35,149.44 48.27,130.609L56.53,130.609ZM82.35,96L82.35,96.01C96.61,96.01 108.17,84.45 108.17,70.19C108.17,69.3 108.13,68.42 108.04,67.55C108.04,67.5 108.02,67.44 108.02,67.38C107.98,67.05 107.94,66.71 107.89,66.38C105.99,53.94 95.29,44.41 82.37,44.41C68.11,44.41 56.55,56.01 56.55,70.33C56.55,71.04 56.58,71.74 56.64,72.44C56.67,72.81 56.71,73.19 56.76,73.56C56.77,73.63 56.79,73.7 56.79,73.77C56.82,73.99 56.85,74.22 56.89,74.45C58.92,86.68 69.55,96 82.35,96ZM143.23,156.42C157.49,156.42 169.05,144.86 169.05,130.6C169.05,116.34 157.49,104.78 143.23,104.78C128.97,104.78 117.41,116.34 117.41,130.6C117.41,144.86 128.97,156.42 143.23,156.42ZM117.21,92.4C117.22,92.42 117.23,92.43 117.24,92.44C117.23,92.42 117.21,92.4 117.21,92.4ZM108.52,91.99C105.71,95.36 102.27,98.17 98.37,100.25L98.38,100.25L98.58,100.35C100.75,101.53 102.77,102.95 104.62,104.56C105.87,105.65 107.04,106.82 108.12,108.08C108.14,108.1 108.15,108.12 108.17,108.14C108.29,108.28 108.4,108.41 108.52,108.55L108.52,91.99ZM117.26,95.89C117.26,95.91 117.28,95.92 117.3,95.93L126.74,95.95L141.65,95.95C142.11,95.98 142.57,95.99 143.03,95.99C143.76,95.99 144.48,95.95 145.2,95.89C157.75,94.84 167.74,84.83 168.75,72.27C168.81,71.57 168.84,70.88 168.84,70.17C168.84,56.83 158.72,45.85 145.73,44.5C144.84,44.41 143.94,44.36 143.03,44.36C128.77,44.36 117.21,55.92 117.21,70.18L117.21,72.28L117.26,90.28L117.26,95.89Z" style="fill:white;"/></g><g transform="matrix(1,0,0,1,390.626,46.8021)"><text x="0px" y="0px" style="font-family:'ArialMT', 'Arial', sans-serif;font-size:8px;fill:white;">TM</text></g><g transform="matrix(1,0,0,1,169.964,46.8021)"><text x="0px" y="0px" style="font-family:'ArialMT', 'Arial', sans-serif;font-size:8px;fill:white;">TM</text></g></svg>