<?xml version="1.0" encoding="UTF-8" standalone="no"?>
<!DOCTYPE svg PUBLIC "-//W3C//DTD SVG 1.1//EN" "http://www.w3.org/Graphics/SVG/1.1/DTD/svg11.dtd">
<svg width="100%" height="100%" viewBox="0 0 130 129" version="1.1" xmlns="http://www.w3.org/2000/svg" xmlns:xlink="http://www.w3.org/1999/xlink" xml:space="preserve" xmlns:serif="http://www.serif.com/" style="fill-rule:evenodd;clip-rule:evenodd;stroke-linejoin:round;stroke-miterlimit:2;">
    <g transform="matrix(1,0,0,1,-48.27,-36.11)">
        <path d="M108.16,70.18C108.16,69.29 108.11,68.41 108.03,67.54C108.03,67.48 108.01,67.42 108.01,67.37C107.97,67.03 107.93,66.7 107.88,66.37C105.98,53.93 95.28,44.4 82.36,44.4C68.1,44.4 56.54,56.01 56.54,70.32C56.54,71.03 56.58,71.73 56.63,72.43C56.66,72.81 56.7,73.18 56.75,73.55C56.75,73.62 56.77,73.69 56.78,73.76C56.81,73.99 56.85,74.22 56.88,74.44C58.91,86.67 69.53,95.99 82.34,95.99C96.6,95.99 108.16,84.43 108.16,70.17L108.16,70.18Z" style="fill:rgb(0,168,156);fill-rule:nonzero;"/>
        <g transform="matrix(0.973259,-0.22971,0.22971,0.973259,-26.17,36.4)">
            <circle cx="143.22" cy="130.6" r="25.82" style="fill:rgb(241,160,31);"/>
        </g>
        <path d="M126.73,95.96L141.64,95.96C142.1,95.98 142.55,96 143.02,96C143.75,96 144.48,95.96 145.19,95.9C157.74,94.85 167.73,84.84 168.74,72.28C168.8,71.59 168.83,70.89 168.83,70.18C168.83,56.83 158.7,45.86 145.72,44.51C144.83,44.42 143.93,44.37 143.02,44.37C128.76,44.37 117.2,55.93 117.2,70.19L117.2,72.29L117.25,90.29L117.25,95.91C117.25,95.91 117.27,95.94 117.29,95.95L126.73,95.97L126.73,95.96Z" style="fill:rgb(190,76,39);fill-rule:nonzero;"/>
        <path d="M56.53,130.463C56.532,143.862 66.651,154.88 79.64,156.24C93.7,157.46 107.89,146.91 108.09,130.46C108.09,130.34 108.1,130.23 108.1,130.11L108.1,128.91C107.33,115.77 96.82,105.26 83.71,104.57C83.158,104.531 82.878,104.492 82.47,104.49C82.457,104.49 82.443,104.49 82.43,104.49L82.34,104.49C76.49,104.49 70.99,103.01 66.18,100.4C66.16,100.41 66.14,100.42 66.13,100.42C57.18,95.55 50.67,86.75 48.83,76.33C48.74,75.83 48.66,75.33 48.59,74.82L48.56,74.55C48.37,73.12 48.27,71.67 48.27,70.19C48.27,51.37 63.52,36.12 82.34,36.12L82.39,36.12C83.1,36.12 83.8,36.15 84.5,36.19C84.72,36.2 84.94,36.22 85.16,36.24C85.71,36.28 86.25,36.34 86.79,36.41C86.97,36.44 87.15,36.45 87.33,36.48C88.03,36.58 88.71,36.71 89.39,36.85C89.54,36.88 89.68,36.92 89.83,36.95C90.4,37.07 90.96,37.21 91.52,37.37C91.69,37.42 91.85,37.46 92.01,37.51C93.41,37.93 94.77,38.43 96.09,39.01C96.14,39.03 96.2,39.06 96.25,39.08C103.35,42.26 109.16,47.79 112.69,54.69C112.75,54.57 112.8,54.45 112.86,54.34C118.56,43.5 129.92,36.11 143.02,36.11C161.84,36.11 177.09,51.36 177.09,70.18C177.09,70.89 177.06,71.59 177.02,72.28C176.28,84.33 169.29,94.7 159.24,100.15C159.122,100.219 158.993,100.278 158.875,100.338C169.807,106.01 177.28,117.426 177.28,130.59C177.28,149.41 162.03,164.66 143.21,164.66C129.92,164.66 118.42,157.05 112.8,145.95L112.7,145.95C112.63,146.09 112.57,146.23 112.5,146.36C106.8,157.25 95.44,164.67 82.34,164.67C63.521,164.67 48.272,149.362 48.27,130.463L56.53,130.463ZM143.23,156.42C157.49,156.42 169.05,144.86 169.05,130.6C169.05,116.34 157.49,104.78 143.23,104.78C128.97,104.78 117.41,116.34 117.41,130.6C117.41,144.86 128.97,156.42 143.23,156.42ZM117.21,92.4C117.22,92.42 117.23,92.43 117.24,92.44C117.23,92.42 117.21,92.4 117.21,92.4ZM117.26,95.89C117.26,95.91 117.28,95.92 117.3,95.93L126.74,95.95L141.65,95.95C142.11,95.98 142.57,95.99 143.03,95.99C143.76,95.99 144.48,95.95 145.2,95.89C157.75,94.84 167.74,84.83 168.75,72.27C168.81,71.57 168.84,70.88 168.84,70.17C168.84,56.83 158.72,45.85 145.73,44.5C144.84,44.41 143.94,44.36 143.03,44.36C128.77,44.36 117.21,55.92 117.21,70.18L117.21,72.28L117.26,90.28L117.26,95.89ZM108.52,108.55L108.52,91.99C105.71,95.36 102.27,98.17 98.37,100.25L98.38,100.25L98.58,100.35C100.75,101.53 102.77,102.95 104.62,104.56C105.87,105.65 107.04,106.82 108.12,108.08C108.14,108.1 108.15,108.12 108.17,108.14C108.29,108.28 108.4,108.41 108.52,108.55ZM82.35,96L82.35,96.01C96.61,96.01 108.17,84.45 108.17,70.19C108.17,69.3 108.13,68.42 108.04,67.55C108.04,67.5 108.02,67.44 108.02,67.38C107.98,67.05 107.94,66.71 107.89,66.38C105.99,53.94 95.29,44.41 82.37,44.41C68.11,44.41 56.55,56.01 56.55,70.33C56.55,71.04 56.58,71.74 56.64,72.44C56.67,72.81 56.71,73.19 56.76,73.56C56.77,73.63 56.79,73.7 56.79,73.77C56.82,73.99 56.85,74.22 56.89,74.45C58.92,86.68 69.55,96 82.35,96Z"/>
    </g>
</svg>
